STARTFONT 2.1
FONT
CHARS 95
STARTCHAR
ENCODING 32
DWIDTH 6 0
BBX 0 0 0 0
BITMAP
ENDCHAR
STARTCHAR
ENCODING 33
DWIDTH 2 0
BBX 1 9 0 0
BITMAP
8000
8000
8000
8000
8000
8000
8000
0000
8000
ENDCHAR
STARTCHAR
ENCODING 34
DWIDTH 4 0
BBX 3 3 0 6
BITMAP
A000
A000
A000
ENDCHAR
STARTCHAR
ENCODING 35
DWIDTH 6 0
BBX 5 5 0 2
BITMAP
5000
F800
5000
F800
5000
ENDCHAR
STARTCHAR
ENCODING 36
DWIDTH 6 0
BBX 5 10 0 0
BITMAP
2000
2000
7000
A000
F000
2800
A800
7000
2000
2000
ENDCHAR
STARTCHAR
ENCODING 37
DWIDTH 8 0
BBX 7 7 0 1
BITMAP
4200
A400
4800
1000
2400
4A00
8400
ENDCHAR
STARTCHAR
ENCODING 38
DWIDTH 8 0
BBX 7 9 0 0
BITMAP
2000
5000
5000
2000
5000
8A00
8400
8A00
7000
ENDCHAR
STARTCHAR
ENCODING 39
DWIDTH 3 0
BBX 2 2 0 8
BITMAP
4000
8000
ENDCHAR
STARTCHAR
ENCODING 40
DWIDTH 4 0
BBX 3 11 0 -2
BITMAP
2000
4000
8000
8000
8000
8000
8000
8000
8000
4000
2000
ENDCHAR
STARTCHAR
ENCODING 41
DWIDTH 4 0
BBX 3 11 0 -2
BITMAP
8000
4000
2000
2000
2000
2000
2000
2000
2000
4000
8000
ENDCHAR
STARTCHAR
ENCODING 42
DWIDTH 6 0
BBX 5 5 0 2
BITMAP
2000
A800
7000
A800
2000
ENDCHAR
STARTCHAR
ENCODING 43
DWIDTH 6 0
BBX 5 5 0 2
BITMAP
2000
2000
F800
2000
2000
ENDCHAR
STARTCHAR
ENCODING 44
DWIDTH 3 0
BBX 2 2 0 -1
BITMAP
4000
8000
ENDCHAR
STARTCHAR
ENCODING 45
DWIDTH 6 0
BBX 5 1 0 4
BITMAP
F800
ENDCHAR
STARTCHAR
ENCODING 46
DWIDTH 2 0
BBX 1 1 0 0
BITMAP
8000
ENDCHAR
STARTCHAR
ENCODING 47
DWIDTH 8 0
BBX 7 7 0 2
BITMAP
0200
0400
0800
1000
2000
4000
8000
ENDCHAR
STARTCHAR
ENCODING 48
DWIDTH 6 0
BBX 5 9 0 0
BITMAP
7000
8800
8800
8800
8800
8800
8800
8800
7000
ENDCHAR
STARTCHAR
ENCODING 49
DWIDTH 3 0
BBX 2 9 0 0
BITMAP
4000
C000
4000
4000
4000
4000
4000
4000
4000
ENDCHAR
STARTCHAR
ENCODING 50
DWIDTH 6 0
BBX 5 9 0 0
BITMAP
7000
8800
8800
1000
2000
4000
8000
8000
F800
ENDCHAR
STARTCHAR
ENCODING 51
DWIDTH 6 0
BBX 5 9 0 0
BITMAP
7000
8800
0800
0800
3000
0800
0800
8800
7000
ENDCHAR
STARTCHAR
ENCODING 52
DWIDTH 6 0
BBX 5 9 0 0
BITMAP
1000
3000
5000
9000
F800
1000
1000
1000
1000
ENDCHAR
STARTCHAR
ENCODING 53
DWIDTH 6 0
BBX 5 9 0 0
BITMAP
F800
8000
8000
F000
0800
0800
8800
8800
7000
ENDCHAR
STARTCHAR
ENCODING 54
DWIDTH 6 0
BBX 5 9 0 0
BITMAP
7000
8800
8800
8000
F000
8800
8800
8800
7000
ENDCHAR
STARTCHAR
ENCODING 55
DWIDTH 6 0
BBX 5 9 0 0
BITMAP
F800
0800
0800
1000
2000
2000
2000
2000
2000
ENDCHAR
STARTCHAR
ENCODING 56
DWIDTH 6 0
BBX 5 9 0 0
BITMAP
7000
8800
8800
8800
7000
8800
8800
8800
7000
ENDCHAR
STARTCHAR
ENCODING 57
DWIDTH 6 0
BBX 5 9 0 0
BITMAP
7000
8800
8800
8800
7800
0800
8800
8800
7000
ENDCHAR
STARTCHAR
ENCODING 58
DWIDTH 2 0
BBX 1 6 0 0
BITMAP
8000
0000
0000
0000
0000
8000
ENDCHAR
STARTCHAR
ENCODING 59
DWIDTH 3 0
BBX 2 7 0 -1
BITMAP
4000
0000
0000
0000
0000
4000
8000
ENDCHAR
STARTCHAR
ENCODING 60
DWIDTH 5 0
BBX 4 7 0 0
BITMAP
1000
2000
4000
8000
4000
2000
1000
ENDCHAR
STARTCHAR
ENCODING 61
DWIDTH 6 0
BBX 5 3 0 3
BITMAP
F800
0000
F800
ENDCHAR
STARTCHAR
ENCODING 62
DWIDTH 5 0
BBX 4 7 0 0
BITMAP
8000
4000
2000
1000
2000
4000
8000
ENDCHAR
STARTCHAR
ENCODING 63
DWIDTH 6 0
BBX 5 9 0 0
BITMAP
7000
8800
8800
0800
1000
2000
2000
0000
2000
ENDCHAR
STARTCHAR
ENCODING 64
DWIDTH 10 0
BBX 9 10 0 0
BITMAP
3E00
4100
9C80
A280
9E80
A280
A280
9F80
4000
3C00
ENDCHAR
STARTCHAR
ENCODING 65
DWIDTH 7 0
BBX 6 9 0 0
BITMAP
7800
8400
8400
8400
FC00
8400
8400
8400
8400
ENDCHAR
STARTCHAR
ENCODING 66
DWIDTH 7 0
BBX 6 9 0 0
BITMAP
F800
8400
8400
8400
F800
8400
8400
8400
F800
ENDCHAR
STARTCHAR
ENCODING 67
DWIDTH 7 0
BBX 6 9 0 0
BITMAP
3800
4400
8000
8000
8000
8000
8000
4400
3800
ENDCHAR
STARTCHAR
ENCODING 68
DWIDTH 7 0
BBX 6 9 0 0
BITMAP
F000
8800
8400
8400
8400
8400
8400
8800
F000
ENDCHAR
STARTCHAR
ENCODING 69
DWIDTH 6 0
BBX 5 9 0 0
BITMAP
F800
8000
8000
8000
F000
8000
8000
8000
F800
ENDCHAR
STARTCHAR
ENCODING 70
DWIDTH 6 0
BBX 5 9 0 0
BITMAP
F800
8000
8000
8000
F000
8000
8000
8000
8000
ENDCHAR
STARTCHAR
ENCODING 71
DWIDTH 8 0
BBX 7 9 0 0
BITMAP
3C00
4000
8000
8000
8000
8200
8200
4200
3E00
ENDCHAR
STARTCHAR
ENCODING 72
DWIDTH 7 0
BBX 6 9 0 0
BITMAP
8400
8400
8400
8400
FC00
8400
8400
8400
8400
ENDCHAR
STARTCHAR
ENCODING 73
DWIDTH 2 0
BBX 1 9 0 0
BITMAP
8000
8000
8000
8000
8000
8000
8000
8000
8000
ENDCHAR
STARTCHAR
ENCODING 74
DWIDTH 6 0
BBX 5 9 0 0
BITMAP
0800
0800
0800
0800
0800
0800
8800
8800
7000
ENDCHAR
STARTCHAR
ENCODING 75
DWIDTH 7 0
BBX 6 9 0 0
BITMAP
8400
8800
9000
A000
C000
A000
9000
8800
8400
ENDCHAR
STARTCHAR
ENCODING 76
DWIDTH 6 0
BBX 5 9 0 0
BITMAP
8000
8000
8000
8000
8000
8000
8000
8000
F800
ENDCHAR
STARTCHAR
ENCODING 77
DWIDTH 8 0
BBX 7 9 0 0
BITMAP
8200
C600
AA00
9200
8200
8200
8200
8200
8200
ENDCHAR
STARTCHAR
ENCODING 78
DWIDTH 7 0
BBX 6 9 0 0
BITMAP
8400
C400
A400
9400
8C00
8400
8400
8400
8400
ENDCHAR
STARTCHAR
ENCODING 79
DWIDTH 7 0
BBX 6 9 0 0
BITMAP
7800
8400
8400
8400
8400
8400
8400
8400
7800
ENDCHAR
STARTCHAR
ENCODING 80
DWIDTH 7 0
BBX 6 9 0 0
BITMAP
F800
8400
8400
8400
F800
8000
8000
8000
8000
ENDCHAR
STARTCHAR
ENCODING 81
DWIDTH 8 0
BBX 7 9 0 0
BITMAP
3800
4400
8200
8200
8200
8200
8A00
4400
3A00
ENDCHAR
STARTCHAR
ENCODING 82
DWIDTH 7 0
BBX 6 9 0 0
BITMAP
F800
8400
8400
8400
F800
8400
8400
8400
8400
ENDCHAR
STARTCHAR
ENCODING 83
DWIDTH 6 0
BBX 5 9 0 0
BITMAP
7000
8800
8000
8000
7000
0800
0800
8800
7000
ENDCHAR
STARTCHAR
ENCODING 84
DWIDTH 6 0
BBX 5 9 0 0
BITMAP
F800
2000
2000
2000
2000
2000
2000
2000
2000
ENDCHAR
STARTCHAR
ENCODING 85
DWIDTH 6 0
BBX 5 9 0 0
BITMAP
8800
8800
8800
8800
8800
8800
8800
8800
7000
ENDCHAR
STARTCHAR
ENCODING 86
DWIDTH 6 0
BBX 5 9 0 0
BITMAP
8800
8800
8800
8800
8800
8800
8800
5000
2000
ENDCHAR
STARTCHAR
ENCODING 87
DWIDTH 6 0
BBX 5 9 0 0
BITMAP
8800
8800
8800
8800
8800
8800
A800
D800
8800
ENDCHAR
STARTCHAR
ENCODING 88
DWIDTH 6 0
BBX 5 9 0 0
BITMAP
8800
8800
8800
5000
2000
5000
8800
8800
8800
ENDCHAR
STARTCHAR
ENCODING 89
DWIDTH 6 0
BBX 5 9 0 0
BITMAP
8800
8800
8800
5000
2000
2000
2000
2000
2000
ENDCHAR
STARTCHAR
ENCODING 90
DWIDTH 6 0
BBX 5 9 0 0
BITMAP
F800
0800
0800
1000
2000
4000
8000
8000
F800
ENDCHAR
STARTCHAR
ENCODING 91
DWIDTH 4 0
BBX 3 11 0 -2
BITMAP
E000
8000
8000
8000
8000
8000
8000
8000
8000
8000
E000
ENDCHAR
STARTCHAR
ENCODING 92
DWIDTH 8 0
BBX 7 7 0 1
BITMAP
8000
4000
2000
1000
0800
0400
0200
ENDCHAR
STARTCHAR
ENCODING 93
DWIDTH 4 0
BBX 3 11 0 -2
BITMAP
E000
2000
2000
2000
2000
2000
2000
2000
2000
2000
E000
ENDCHAR
STARTCHAR
ENCODING 94
DWIDTH 4 0
BBX 3 2 0 7
BITMAP
4000
A000
ENDCHAR
STARTCHAR
ENCODING 95
DWIDTH 6 0
BBX 5 1 0 0
BITMAP
F800
ENDCHAR
STARTCHAR
ENCODING 96
DWIDTH 3 0
BBX 2 2 0 7
BITMAP
8000
4000
ENDCHAR
STARTCHAR
ENCODING 97
DWIDTH 6 0
BBX 5 6 0 0
BITMAP
7000
0800
7800
8800
8800
7800
ENDCHAR
STARTCHAR
ENCODING 98
DWIDTH 6 0
BBX 5 9 0 0
BITMAP
8000
8000
8000
F000
8800
8800
8800
8800
F000
ENDCHAR
STARTCHAR
ENCODING 99
DWIDTH 6 0
BBX 5 6 0 0
BITMAP
7000
8800
8000
8000
8800
7000
ENDCHAR
STARTCHAR
ENCODING 100
DWIDTH 6 0
BBX 5 9 0 0
BITMAP
0800
0800
0800
7800
8800
8800
8800
8800
7800
ENDCHAR
STARTCHAR
ENCODING 101
DWIDTH 6 0
BBX 5 6 0 0
BITMAP
7000
8800
F800
8000
8800
7000
ENDCHAR
STARTCHAR
ENCODING 102
DWIDTH 4 0
BBX 3 9 0 0
BITMAP
2000
4000
4000
E000
4000
4000
4000
4000
4000
ENDCHAR
STARTCHAR
ENCODING 103
DWIDTH 6 0
BBX 5 8 0 -2
BITMAP
7800
8800
8800
8800
8800
7800
0800
7000
ENDCHAR
STARTCHAR
ENCODING 104
DWIDTH 6 0
BBX 5 9 0 0
BITMAP
8000
8000
8000
F000
8800
8800
8800
8800
8800
ENDCHAR
STARTCHAR
ENCODING 105
DWIDTH 2 0
BBX 1 9 0 0
BITMAP
8000
0000
0000
8000
8000
8000
8000
8000
8000
ENDCHAR
STARTCHAR
ENCODING 106
DWIDTH 6 0
BBX 5 11 0 -2
BITMAP
0800
0000
0000
1800
0800
0800
0800
0800
8800
8800
7000
ENDCHAR
STARTCHAR
ENCODING 107
DWIDTH 6 0
BBX 5 9 0 0
BITMAP
8000
8000
8000
9000
A000
C000
A000
9000
8800
ENDCHAR
STARTCHAR
ENCODING 108
DWIDTH 2 0
BBX 1 9 0 0
BITMAP
8000
8000
8000
8000
8000
8000
8000
8000
8000
ENDCHAR
STARTCHAR
ENCODING 109
DWIDTH 8 0
BBX 7 6 0 0
BITMAP
EC00
9200
9200
9200
9200
9200
ENDCHAR
STARTCHAR
ENCODING 110
DWIDTH 6 0
BBX 5 6 0 0
BITMAP
F000
8800
8800
8800
8800
8800
ENDCHAR
STARTCHAR
ENCODING 111
DWIDTH 6 0
BBX 5 6 0 0
BITMAP
7000
8800
8800
8800
8800
7000
ENDCHAR
STARTCHAR
ENCODING 112
DWIDTH 6 0
BBX 5 8 0 -2
BITMAP
F000
8800
8800
8800
8800
F000
8000
8000
ENDCHAR
STARTCHAR
ENCODING 113
DWIDTH 6 0
BBX 5 8 0 -2
BITMAP
7800
8800
8800
8800
8800
7800
0800
0800
ENDCHAR
STARTCHAR
ENCODING 114
DWIDTH 6 0
BBX 5 6 0 0
BITMAP
F000
8800
8000
8000
8000
8000
ENDCHAR
STARTCHAR
ENCODING 115
DWIDTH 6 0
BBX 5 6 0 0
BITMAP
7000
8000
F000
0800
8800
7000
ENDCHAR
STARTCHAR
ENCODING 116
DWIDTH 4 0
BBX 3 9 0 0
BITMAP
4000
4000
4000
E000
4000
4000
4000
4000
2000
ENDCHAR
STARTCHAR
ENCODING 117
DWIDTH 6 0
BBX 5 6 0 0
BITMAP
8800
8800
8800
8800
8800
7000
ENDCHAR
STARTCHAR
ENCODING 118
DWIDTH 6 0
BBX 5 6 0 0
BITMAP
8800
8800
8800
8800
5000
2000
ENDCHAR
STARTCHAR
ENCODING 119
DWIDTH 8 0
BBX 7 6 0 0
BITMAP
9200
9200
9200
9200
9200
6C00
ENDCHAR
STARTCHAR
ENCODING 120
DWIDTH 5 0
BBX 4 6 0 0
BITMAP
9000
9000
6000
6000
9000
9000
ENDCHAR
STARTCHAR
ENCODING 121
DWIDTH 6 0
BBX 5 8 0 -2
BITMAP
8800
8800
8800
8800
8800
7800
0800
7000
ENDCHAR
STARTCHAR
ENCODING 122
DWIDTH 5 0
BBX 4 6 0 0
BITMAP
F000
1000
2000
4000
8000
F000
ENDCHAR
STARTCHAR
ENCODING 123
DWIDTH 5 0
BBX 4 11 0 -2
BITMAP
3000
4000
4000
4000
4000
8000
4000
4000
4000
4000
3000
ENDCHAR
STARTCHAR
ENCODING 124
DWIDTH 2 0
BBX 1 10 0 -1
BITMAP
8000
8000
8000
8000
8000
8000
8000
8000
8000
8000
ENDCHAR
STARTCHAR
ENCODING 125
DWIDTH 5 0
BBX 4 11 0 -2
BITMAP
C000
2000
2000
2000
2000
1000
2000
2000
2000
2000
C000
ENDCHAR
STARTCHAR
ENCODING 126
DWIDTH 8 0
BBX 7 4 0 5
BITMAP
6000
9200
9200
0C00
ENDCHAR
ENDFONT
